# xmcd
#
# Track frame offsets:
#	150
#	22502
#	34257
#	47112
#	58797
#	86777
#	100957
#	113960
#	127250
#	142212
#	155145
#	170042
#
# Disc length: 2408
#
# Revision: 3
# Processed by: cddbd v1.5.1PL0 Copyright (c) Steve Scherf et al.
# Submitted via: NotifyCDPlayer(CDDB) 1.51.3
# Normalized: r2:DSETVAR1,TDELIM( - )
#
DISCID=b109660c
DTITLE=Various Artist - Best of Chess Ryhthm and Blues Volume 2
DYEAR=1900
DGENRE=
TTITLE0=Billy Stewart - Summertime
TTITLE1=Tony Clarke - The Entertainer
TTITLE2=Mitty Collier - I Had a Talk With My Man Last Night
TTITLE3=The Radiants - Voice Your Choice
TTITLE4=The Dells - Stay In My Corner
TTITLE5=Little Milton - If Walls Could Talk
TTITLE6=Laura Lee - Dirty Old Man
TTITLE7=Fontella Bass - Rescue Me
TTITLE8=The Ramsey Lewis Trio - The "In" Crowd
TTITLE9=Sugar Pie DeSanto - Soulful Dress
TTITLE10=Jackie Ross - Selfish One
TTITLE11=Etta James - Tell Mama
EXTD=
EXTT0=
EXTT1=
EXTT2=
EXTT3=
EXTT4=
EXTT5=
EXTT6=
EXTT7=
EXTT8=
EXTT9=
EXTT10=
EXTT11=
PLAYORDER=
